<svg xmlns="http://www.w3.org/2000/svg" width="20" height="20" fill="none"><path d="M3 1c-1.1 0-2 .9-2 2v3c0 1.1.9 2 2 2h3c1.1 0 2-.9 2-2V3c0-1.1-.9-2-2-2H3zm0 11c-1.1 0-2 .9-2 2v3c0 1.1.9 2 2 2h3c1.1 0 2-.9 2-2v-3c0-1.1-.9-2-2-2H3zm9-9c0-1.1.9-2 2-2h3c1.1 0 2 .9 2 2v3c0 1.1-.9 2-2 2h-3c-1.1 0-2-.9-2-2V3zm2 9c-1.1 0-2 .9-2 2v3c0 1.1.9 2 2 2h3c1.1 0 2-.9 2-2v-3c0-1.1-.9-2-2-2h-3z" fill="currentColor"/><path d="M2 3c0-.6.4-1 1-1V0C1.3 0 0 1.3 0 3h2zm0 3V3H0v3h2zm1 1c-.6 0-1-.4-1-1H0c0 1.7 1.3 3 3 3V7zm3 0H3v2h3V7zm1-1c0 .6-.4 1-1 1v2c1.7 0 3-1.3 3-3H7zm0-3v3h2V3H7zM6 2c.6 0 1 .4 1 1h2c0-1.7-1.3-3-3-3v2zM3 2h3V0H3v2zM2 14c0-.6.4-1 1-1v-2c-1.7 0-3 1.3-3 3h2zm0 3v-3H0v3h2zm1 1c-.6 0-1-.4-1-1H0c0 1.7 1.3 3 3 3v-2zm3 0H3v2h3v-2zm1-1c0 .6-.4 1-1 1v2c1.7 0 3-1.3 3-3H7zm0-3v3h2v-3H7zm-1-1c.6 0 1 .4 1 1h2c0-1.7-1.3-3-3-3v2zm-3 0h3v-2H3v2zM14 0c-1.7 0-3 1.3-3 3h2c0-.6.4-1 1-1V0zm3 0h-3v2h3V0zm3 3c0-1.7-1.3-3-3-3v2c.6 0 1 .4 1 1h2zm0 3V3h-2v3h2zm-3 3c1.7 0 3-1.3 3-3h-2c0 .6-.4 1-1 1v2zm-3 0h3V7h-3v2zm-3-3c0 1.7 1.3 3 3 3V7c-.6 0-1-.4-1-1h-2zm0-3v3h2V3h-2zm2 11c0-.6.4-1 1-1v-2c-1.7 0-3 1.3-3 3h2zm0 3v-3h-2v3h2zm1 1c-.6 0-1-.4-1-1h-2c0 1.7 1.3 3 3 3v-2zm3 0h-3v2h3v-2zm1-1c0 .6-.4 1-1 1v2c1.7 0 3-1.3 3-3h-2zm0-3v3h2v-3h-2zm-1-1c.6 0 1 .4 1 1h2c0-1.7-1.3-3-3-3v2zm-3 0h3v-2h-3v2z" fill="currentColor"/></svg>