<svg width="20" height="20" fill="none" xmlns="http://www.w3.org/2000/svg"><path d="M12 1h1a1 1 0 00-1-1v1zM8 1V0a1 1 0 00-1 1h1zm4 2.29h-1a1 1 0 00.715.958L12 3.29zm2.81 1.624l-.688.726a1 1 0 001.187.14l-.5-.866zm1.984-1.146l.866-.5a1 1 0 00-1.366-.366l.5.866zm2 3.464l.5.866a1 1 0 00.366-1.366l-.866.5zm-1.983 1.145l-.5-.866a1 1 0 00-.473 1.097l.973-.231zm0 3.246l-.973-.231a1 1 0 00.473 1.097l.5-.866zm1.983 1.145l.866.5a1 1 0 00-.366-1.366l-.5.866zm-2 3.464l-.5.866a1 1 0 001.366-.366l-.866-.5zm-1.985-1.146l.5-.866a1 1 0 00-1.187.14l.687.726zM12 16.71l-.285-.958a1 1 0 00-.715.958h1zM12 19v1a1 1 0 001-1h-1zm-4 0H7a1 1 0 001 1v-1zm0-2.29h1a1 1 0 00-.715-.958L8 16.71zm-2.81-1.624l.688-.726a1 1 0 00-1.188-.14l.5.866zm-1.984 1.146l-.866.5a1 1 0 001.366.366l-.5-.866zm-2-3.464l-.5-.866a1 1 0 00-.366 1.366l.866-.5zm1.983-1.145l.5.866a1 1 0 00.473-1.097l-.973.23zm0-3.246l.973.231a1 1 0 00-.473-1.097l-.5.866zM1.206 7.232l-.866-.5a1 1 0 00.366 1.366l.5-.866zm2-3.464l.5-.866a1 1 0 00-1.366.366l.866.5zM5.19 4.914l-.5.866a1 1 0 001.188-.14l-.688-.726zM8 3.29l.285.958A1 1 0 009 3.29H8zM12 0H8v2h4V0zm1 3.29V1h-2v2.29h2zm2.496.897a7.992 7.992 0 00-3.21-1.856l-.571 1.917a5.993 5.993 0 012.407 1.392l1.374-1.453zm.798-1.285L14.31 4.048l1 1.732 1.985-1.146-1-1.732zm3.366 3.83l-2-3.464-1.732 1 2 3.464 1.732-1zm-2.35 2.511l1.984-1.145-1-1.732-1.983 1.145 1 1.732zM18 10a8.02 8.02 0 00-.216-1.854l-1.946.462c.106.446.162.912.162 1.392h2zm-.216 1.854A8.019 8.019 0 0018 10h-2c0 .48-.056.946-.162 1.392l1.946.462zm1.51.048l-1.983-1.145-1 1.732 1.983 1.145 1-1.732zm-1.634 4.83l2-3.464-1.732-1-2 3.464 1.732 1zm-3.35-.78l1.984 1.146 1-1.732-1.985-1.146-1 1.732zm-2.025 1.717a7.993 7.993 0 003.212-1.856l-1.375-1.453a5.992 5.992 0 01-2.407 1.392l.57 1.917zM13 19v-2.29h-2V19h2zm-5 1h4v-2H8v2zm-1-3.29V19h2v-2.29H7zm-2.497-.898a7.992 7.992 0 003.212 1.857l.57-1.917a5.993 5.993 0 01-2.407-1.392l-1.375 1.453zm-.797 1.286l1.984-1.146-1-1.732-1.984 1.146 1 1.732zM.34 13.268l2 3.464 1.732-1-2-3.464-1.732 1zm2.349-2.511L.706 11.902l1 1.732 1.983-1.145-1-1.732zM2 10c0 .637.075 1.258.216 1.854l1.946-.462A6.02 6.02 0 014 10H2zm.216-1.854A8.02 8.02 0 002 10h2c0-.48.056-.946.162-1.392l-1.946-.462zm-1.51-.048l1.983 1.145 1-1.732-1.983-1.145-1 1.732zm1.634-4.83l-2 3.464 1.732 1 2-3.464-1.732-1zm3.35.78L3.706 2.902l-1 1.732L4.69 5.78l1-1.732zM7.715 2.33a7.992 7.992 0 00-3.212 1.856L5.878 5.64a5.993 5.993 0 012.407-1.392l-.57-1.917zM7 1v2.29h2V1H7zm5 9a2 2 0 01-2 2v2a4 4 0 004-4h-2zm-2-2a2 2 0 012 2h2a4 4 0 00-4-4v2zm-2 2a2 2 0 012-2V6a4 4 0 00-4 4h2zm2 2a2 2 0 01-2-2H6a4 4 0 004 4v-2z" fill="#B4BEF0"/></svg>