<svg width="162" height="36" fill="none" xmlns="http://www.w3.org/2000/svg"><path d="M48.312 16.309h7.032v2.662H45V2.884h3.312v13.425zm14.455 2.883c-1.751 0-3.18-.537-4.283-1.613-1.097-1.075-1.645-2.508-1.645-4.298v-.31c0-1.2.232-2.272.696-3.215.463-.95 1.118-1.679 1.965-2.187.853-.516 1.825-.774 2.914-.774 1.634 0 2.918.516 3.852 1.547.942 1.031 1.413 2.494 1.413 4.387v1.304h-7.605c.103.78.412 1.406.927 1.878.522.471 1.181.707 1.976.707 1.229 0 2.19-.446 2.881-1.337l1.568 1.757c-.479.677-1.126 1.208-1.943 1.59-.817.377-1.722.564-2.716.564zm-.364-9.811c-.633 0-1.148.213-1.546.64-.39.428-.64 1.04-.75 1.835h4.437v-.254c-.014-.707-.206-1.253-.574-1.636-.368-.39-.89-.585-1.567-.585zm11.143-5.304v2.94h2.043v2.342h-2.043v5.966c0 .442.085.759.254.95.17.192.493.288.972.288.353 0 .666-.026.938-.078v2.42a6.56 6.56 0 01-1.932.287c-2.237 0-3.378-1.13-3.422-3.392V9.36h-1.744V7.016h1.744V4.077h3.19zm5.227 3.746l-1.501-.873c.633-.994.96-2.022.982-3.083V2h2.54v1.713c0 .663-.185 1.38-.553 2.154a5.92 5.92 0 01-1.468 1.956zm8.407 7.845c0-.39-.196-.696-.586-.917-.382-.229-1-.431-1.854-.608-2.841-.597-4.261-1.805-4.261-3.624 0-1.06.437-1.945 1.313-2.652.883-.714 2.035-1.072 3.455-1.072 1.516 0 2.727.358 3.632 1.072.913.715 1.37 1.643 1.37 2.785h-3.191c0-.457-.147-.833-.442-1.128-.294-.302-.754-.453-1.38-.453-.537 0-.953.122-1.247.365a1.151 1.151 0 00-.442.928c0 .354.166.641.497.862.339.214.905.401 1.7.563a13.6 13.6 0 012.01.53c1.685.62 2.527 1.691 2.527 3.216 0 1.09-.467 1.974-1.402 2.652-.934.67-2.141 1.005-3.62 1.005-1.001 0-1.892-.176-2.672-.53-.773-.36-1.38-.85-1.821-1.47-.442-.626-.663-1.3-.663-2.021h3.025c.03.567.24 1.001.63 1.303.39.302.912.453 1.567.453.61 0 1.07-.114 1.38-.342.316-.236.474-.542.474-.917zm19.792-.918c0-.625-.221-1.104-.663-1.436-.441-.339-1.236-.692-2.384-1.06-1.148-.376-2.057-.744-2.727-1.105-1.825-.987-2.737-2.317-2.737-3.99 0-.868.243-1.642.728-2.32.493-.684 1.196-1.218 2.109-1.602.92-.383 1.95-.574 3.091-.574 1.148 0 2.171.21 3.068.63.898.412 1.594.998 2.087 1.757.5.758.751 1.62.751 2.585h-3.312c0-.737-.232-1.307-.696-1.713-.463-.412-1.115-.618-1.954-.618-.809 0-1.438.173-1.887.519a1.607 1.607 0 00-.674 1.348c0 .523.262.961.784 1.315.53.353 1.306.685 2.329.994 1.884.567 3.257 1.27 4.118 2.11.861.84 1.292 1.886 1.292 3.139 0 1.392-.527 2.486-1.579 3.281-1.052.788-2.469 1.182-4.25 1.182-1.236 0-2.362-.224-3.378-.674-1.016-.456-1.792-1.079-2.33-1.867-.53-.788-.794-1.701-.794-2.74h3.323c0 1.775 1.059 2.663 3.179 2.663.787 0 1.402-.159 1.843-.475.442-.324.663-.774.663-1.348zm16.343-1.646c0 1.842-.42 3.319-1.259 4.431-.831 1.105-1.957 1.657-3.378 1.657-1.206 0-2.182-.42-2.925-1.26v5.636h-3.19V7.016h2.958l.111 1.171c.772-.928 1.781-1.392 3.024-1.392 1.472 0 2.617.545 3.434 1.636.816 1.09 1.225 2.592 1.225 4.508v.165zm-3.19-.232c0-1.112-.199-1.97-.597-2.574-.39-.604-.96-.906-1.711-.906-1 0-1.689.383-2.064 1.149v4.895c.39.788 1.086 1.182 2.086 1.182 1.524 0 2.286-1.249 2.286-3.746zm10.9 6.32c-1.751 0-3.179-.537-4.283-1.613-1.096-1.075-1.645-2.508-1.645-4.298v-.31c0-1.2.232-2.272.696-3.215.464-.95 1.118-1.679 1.965-2.187.854-.516 1.825-.774 2.914-.774 1.634 0 2.918.516 3.853 1.547.942 1.031 1.413 2.494 1.413 4.387v1.304h-7.606c.103.78.412 1.406.927 1.878.523.471 1.181.707 1.976.707 1.229 0 2.19-.446 2.881-1.337l1.568 1.757c-.479.677-1.126 1.208-1.943 1.59-.817.377-1.722.564-2.716.564zm-.364-9.811c-.633 0-1.148.213-1.545.64-.39.428-.641 1.04-.751 1.835h4.438v-.254c-.015-.707-.206-1.253-.574-1.636-.368-.39-.891-.585-1.568-.585zm14.246 9.59c-.147-.287-.254-.644-.32-1.071-.773.862-1.778 1.292-3.014 1.292-1.17 0-2.142-.338-2.914-1.016-.766-.678-1.148-1.532-1.148-2.563 0-1.268.467-2.24 1.402-2.918.942-.677 2.299-1.02 4.073-1.027h1.468v-.685c0-.553-.143-.995-.43-1.326-.28-.331-.725-.497-1.336-.497-.537 0-.961.129-1.27.387-.301.257-.452.61-.452 1.06h-3.19c0-.692.213-1.333.64-1.922.427-.59 1.03-1.05 1.81-1.381.78-.34 1.656-.509 2.627-.509 1.472 0 2.639.372 3.5 1.116.868.737 1.302 1.776 1.302 3.116v5.182c.008 1.134.166 1.993.475 2.575v.187h-3.223zm-2.639-2.22a2.79 2.79 0 001.303-.31c.397-.213.692-.497.883-.85v-2.056h-1.192c-1.597 0-2.447.553-2.55 1.658l-.011.188c0 .397.14.725.419.983.28.258.663.387 1.148.387zm12.403-2.575l-1.149 1.15v3.645h-3.19V2h3.19v9.403l.619-.796 3.057-3.59h3.831l-4.316 4.982 4.691 6.972h-3.665l-3.068-4.795zM49.703 26.11v5.978h-.663V29.68h-1.854l-1.457 2.41H45l1.501-2.492a1.683 1.683 0 01-.955-.62 1.78 1.78 0 01-.336-1.082c0-.541.193-.974.58-1.298.39-.325.916-.487 1.578-.487h2.335zm-3.83 1.796c0 .35.11.637.33.862.225.224.536.34.933.348h1.904v-2.442h-1.689c-.46 0-.822.11-1.087.332-.261.22-.392.52-.392.9zm11.09-.216c0-.36-.134-.639-.403-.834-.269-.195-.638-.293-1.11-.293-.426 0-.792.111-1.098.332-.301.217-.452.494-.452.829h-.657c0-.497.211-.908.635-1.232.426-.324.95-.486 1.573-.486.684 0 1.218.147 1.6.442.383.294.574.712.574 1.254 0 .287-.088.546-.265.778-.176.233-.434.413-.772.542.765.21 1.148.685 1.148 1.425 0 .538-.208.963-.624 1.276-.416.313-.968.47-1.656.47-.666 0-1.218-.168-1.656-.503-.438-.335-.656-.773-.656-1.315h.662c0 .361.158.663.475.907.32.239.712.359 1.175.359.504 0 .898-.105 1.181-.315.287-.214.43-.503.43-.868 0-.401-.13-.69-.391-.867-.261-.177-.66-.265-1.198-.265h-.91v-.575h1.02c.917-.022 1.375-.375 1.375-1.06zm4.937.592h1.722c.441 0 .828.08 1.159.243.335.158.587.38.756.663.173.283.26.613.26.989 0 .578-.2 1.042-.597 1.392-.393.346-.927.52-1.6.52h-2.357V26.11h.657v2.172zm0 .563v2.685h1.71c.475 0 .847-.12 1.116-.359.272-.24.408-.567.408-.983 0-.398-.132-.719-.397-.962-.262-.246-.62-.373-1.077-.38H61.9zm5.922 3.243h-.662V26.11h.662v5.978zm5.439-2.74h-.916v2.74h-.668V26.11h.668v2.652h.905l2.191-2.652h.834l-2.451 2.9 2.721 3.078h-.872l-2.412-2.74zm5.732-.338c0-.574.11-1.091.33-1.552.225-.46.54-.817.945-1.071A2.54 2.54 0 0181.653 26c.795 0 1.439.28 1.932.84.493.556.74 1.294.74 2.215v.138c0 .578-.113 1.1-.337 1.564a2.48 2.48 0 01-.939 1.066 2.58 2.58 0 01-1.385.376c-.791 0-1.435-.278-1.932-.835-.493-.56-.74-1.3-.74-2.22v-.133zm.662.183c0 .715.184 1.302.552 1.762.371.457.857.686 1.457.686.596 0 1.078-.229 1.446-.685.372-.46.558-1.067.558-1.818v-.127c0-.457-.085-.875-.254-1.254a2.024 2.024 0 00-.712-.879 1.807 1.807 0 00-1.05-.314c-.588 0-1.068.232-1.44.696-.371.46-.557 1.064-.557 1.812v.121zm8.088 2.895V26.11h2.191c.758 0 1.34.137 1.745.41.404.268.607.664.607 1.187 0 .298-.09.565-.27.801-.181.232-.444.402-.79.508.39.074.703.242.938.503.24.262.359.566.359.912 0 .526-.195.935-.585 1.226-.386.287-.935.431-1.645.431h-2.55zm.657-2.751v2.199h1.915c.497 0 .88-.096 1.148-.288.269-.191.403-.467.403-.828a.927.927 0 00-.403-.79c-.268-.196-.651-.293-1.148-.293H88.4zm0-.553h1.672c1.038-.014 1.557-.368 1.557-1.06 0-.365-.144-.63-.43-.796-.284-.17-.705-.254-1.265-.254H88.4v2.11zm11.345 3.304c-.067-.188-.109-.466-.127-.834a2.323 2.323 0 01-.889.701 2.72 2.72 0 01-1.137.244c-.574 0-1.04-.16-1.396-.481a1.57 1.57 0 01-.53-1.215c0-.582.24-1.043.723-1.382.486-.338 1.16-.508 2.026-.508h1.197v-.68c0-.427-.132-.762-.397-1.005-.261-.247-.644-.37-1.148-.37-.46 0-.841.118-1.143.354-.302.235-.452.519-.452.85l-.663-.005c0-.475.221-.886.663-1.232.441-.35.984-.525 1.628-.525.666 0 1.19.168 1.573.503.386.331.585.795.596 1.392v2.829c0 .578.061 1.01.182 1.298v.066h-.706zm-2.076-.475c.442 0 .836-.107 1.182-.32.35-.214.603-.5.761-.857v-1.315h-1.18c-.66.008-1.175.13-1.546.365-.372.232-.558.552-.558.961 0 .335.123.614.37.835.25.22.574.33.971.33zm10.699-5.503v5.978h-.662V29.68h-1.854l-1.458 2.41h-.728l1.501-2.492c-.408-.107-.727-.314-.955-.62a1.782 1.782 0 01-.336-1.082c0-.541.193-.974.579-1.298.39-.325.916-.487 1.579-.487h2.334zm-3.83 1.796c0 .35.11.637.331.862.225.224.535.34.933.348h1.904v-2.442h-1.689c-.46 0-.822.11-1.087.332-.261.22-.392.52-.392.9zm16.124-1.796v5.42h2.655v-5.42h.663v5.42h2.632v-5.42h.663v5.978H120V26.11h.662zm11.87 3.238h-.917v2.74h-.668V26.11h.668v2.652h.905l2.192-2.652h.833l-2.451 2.9 2.722 3.078h-.872l-2.412-2.74zm5.731-.338c0-.574.11-1.091.331-1.552.225-.46.539-.817.944-1.071.408-.258.87-.387 1.385-.387.795 0 1.439.28 1.932.84.493.556.74 1.294.74 2.215v.138c0 .578-.112 1.1-.337 1.564a2.48 2.48 0 01-.938 1.066c-.405.25-.867.376-1.386.376-.791 0-1.435-.278-1.931-.835-.493-.56-.74-1.3-.74-2.22v-.133zm.662.183c0 .715.184 1.302.552 1.762.372.457.858.686 1.457.686.597 0 1.079-.229 1.447-.685.371-.46.557-1.067.557-1.818v-.127c0-.457-.085-.875-.254-1.254a2.024 2.024 0 00-.712-.879 1.806 1.806 0 00-1.049-.314 1.76 1.76 0 00-1.44.696c-.372.46-.558 1.064-.558 1.812v.121zm12.521-3.083v5.978h-.663V26.68h-2.445l-.105 2.238c-.044.829-.127 1.462-.248 1.9-.121.435-.302.755-.541.962-.239.206-.557.31-.955.31h-.254v-.586l.205-.012c.379-.007.651-.191.816-.552.166-.361.275-1.006.326-1.934l.122-2.895h3.742zm7.525 5.978c-.066-.188-.108-.466-.127-.834a2.323 2.323 0 01-.889.701 2.713 2.713 0 01-1.137.244c-.574 0-1.039-.16-1.396-.481a1.57 1.57 0 01-.53-1.215c0-.582.241-1.043.723-1.382.486-.338 1.161-.508 2.026-.508h1.198v-.68c0-.427-.133-.762-.398-1.005-.261-.247-.644-.37-1.148-.37-.46 0-.841.118-1.142.354-.302.235-.453.519-.453.85l-.662-.005c0-.475.22-.886.662-1.232.442-.35.984-.525 1.628-.525.666 0 1.191.168 1.573.503.387.331.585.795.596 1.392v2.829c0 .578.061 1.01.183 1.298v.066h-.707zm-2.075-.475c.441 0 .835-.107 1.181-.32.349-.214.603-.5.762-.857v-1.315h-1.182c-.658.008-1.173.13-1.545.365-.372.232-.558.552-.558.961 0 .335.124.614.37.835.251.22.574.33.972.33z" fill="#3C425F"/><path fill-rule="evenodd" clip-rule="evenodd" d="M0 8a8 8 0 018-8h17a8 8 0 018 8v15a8 8 0 01-8 8H15L5 36v-5.581A8.003 8.003 0 010 23V8zm25 4a4 4 0 00-4-4h-9a4 4 0 00-4 4v6a4 4 0 004 4h2l8 4v-4.126c1.725-.444 3-2.01 3-3.874v-6z" fill="url(#paint0_linear)"/><defs><linearGradient id="paint0_linear" x1="33" y1="0" x2="0" y2="36" gradientUnits="userSpaceOnUse"><stop stop-color="#6F85EF"/><stop offset="1" stop-color="#0DE1D4"/></linearGradient></defs></svg>